<svg width="80" height="80" viewBox="0 0 80 80" fill="none" xmlns="http://www.w3.org/2000/svg">
<rect width="80" height="80" rx="5" fill="url(#paint0_linear_0_22)"/>
<path d="M33.0491 35.1015V60.6674C33.0491 61.5289 32.914 62.3397 32.6437 63.0998C32.3903 63.8431 32.0271 64.4849 31.5542 65.0255C31.0812 65.566 30.5069 65.9968 29.8312 66.3177C29.1555 66.6218 28.4123 66.7738 27.6015 66.7738C26.588 66.7738 25.7265 66.6387 25.017 66.3684C24.3076 66.0981 23.7332 65.6843 23.294 65.1268C22.9562 64.6708 22.7028 64.1133 22.5339 63.4545C22.365 62.7958 22.2805 62.0272 22.2805 61.1488H15.1353C15.1521 63.0576 15.4646 64.7214 16.0728 66.1404C16.6809 67.5593 17.5339 68.7333 18.6319 69.6623C19.713 70.6083 21.0136 71.3177 22.5339 71.7907C24.0542 72.2637 25.7434 72.5001 27.6015 72.5001C29.3582 72.5001 30.9967 72.213 32.517 71.6387C34.0542 71.0643 35.3886 70.2535 36.5204 69.2062C37.6521 68.1589 38.539 66.9174 39.1809 65.4816C39.8396 64.0289 40.1775 62.4241 40.1944 60.6674L40.169 35.1015H33.0491Z" fill="#222222"/>
<path d="M65.963 62.365C65.963 63.0238 65.8278 63.6319 65.5575 64.1893C65.2873 64.7299 64.8988 65.1944 64.392 65.5829C63.8853 65.9714 63.2603 66.2755 62.517 66.4951C61.7907 66.7147 60.9545 66.8245 60.0086 66.8245C58.9444 66.8245 57.9646 66.7062 57.0694 66.4697C56.191 66.2333 55.4393 65.8616 54.8143 65.3549C54.1724 64.8481 53.6741 64.1978 53.3194 63.4039C52.9646 62.6099 52.7704 61.6556 52.7366 60.5407H45.7434C45.7434 62.4495 46.1065 64.1133 46.8329 65.5322C47.5761 66.9512 48.5812 68.1843 49.8481 69.2316C51.1825 70.2958 52.745 71.1066 54.5356 71.664C56.343 72.2045 58.1673 72.4748 60.0086 72.4748C61.8836 72.4748 63.615 72.2552 65.2028 71.816C66.7907 71.3599 68.1589 70.6927 69.3075 69.8143C70.4562 68.9529 71.3515 67.8971 71.9934 66.6471C72.6521 65.3802 72.9815 63.936 72.9815 62.3143C72.9815 60.4393 72.5508 58.7839 71.6893 57.3481C70.8278 55.9123 69.6707 54.6539 68.218 53.5728C67.2552 52.914 66.1994 52.3312 65.0508 51.8245C63.9021 51.3177 62.6944 50.887 61.4275 50.5322C60.245 50.2113 59.1809 49.865 58.2349 49.4934C57.3059 49.1218 56.5119 48.7079 55.8532 48.2518C55.1944 47.8126 54.6876 47.3143 54.3329 46.7569C53.995 46.1995 53.8261 45.5745 53.8261 44.8819C53.8261 44.2231 53.9528 43.615 54.2062 43.0576C54.4765 42.4833 54.865 41.9849 55.3717 41.5626C55.8785 41.1572 56.495 40.8447 57.2214 40.6251C57.9646 40.3887 58.8092 40.2704 59.7552 40.2704C60.7856 40.2704 61.6809 40.414 62.441 40.7012C63.218 40.9714 63.8684 41.3515 64.392 41.8414C64.8988 42.3481 65.2788 42.9478 65.5322 43.6404C65.8025 44.3329 65.9545 45.0931 65.9883 45.9208H72.9309C72.9309 44.2654 72.6099 42.7451 71.968 41.3599C71.3261 39.9748 70.4309 38.7755 69.2822 37.762C68.1336 36.7654 66.7569 35.9883 65.1521 35.4309C63.5643 34.8735 61.8075 34.5947 59.8819 34.5947C58.0238 34.5947 56.3008 34.8397 54.713 35.3295C53.1251 35.8025 51.7484 36.4866 50.5829 37.3819C49.4173 38.2772 48.5052 39.3583 47.8464 40.6251C47.1876 41.892 46.8582 43.3025 46.8582 44.8566C46.8582 46.2079 47.1032 47.4579 47.593 48.6066C48.0998 49.7552 48.843 50.8025 49.8228 51.7485C50.8025 52.6944 52.0609 53.5643 53.5981 54.3583C55.1521 55.1522 56.9511 55.8279 58.995 56.3853C60.3126 56.74 61.4106 57.1285 62.289 57.5508C63.1842 57.9562 63.9106 58.4039 64.468 58.8937C65.0086 59.4005 65.3886 59.941 65.6082 60.5154C65.8447 61.0897 65.963 61.7062 65.963 62.365Z" fill="#222222"/>
<defs>
<linearGradient id="paint0_linear_0_22" x1="0" y1="0" x2="58.6408" y2="62.5243" gradientUnits="userSpaceOnUse">
<stop stop-color="#FFAF13"/>
<stop offset="1" stop-color="#FFE300"/>
</linearGradient>
</defs>
</svg>
