<svg width="80" height="80" viewBox="0 0 80 80" fill="none" xmlns="http://www.w3.org/2000/svg">
<rect width="80" height="80" rx="5" fill="url(#paint0_linear_0_25)"/>
<path d="M52.9123 22.8071H29.2258C28.0688 22.8071 27.1531 23.786 27.2303 24.9405L27.9153 35.1905C27.9855 36.241 28.858 37.0571 29.9108 37.0571H49.8136C50.9737 37.0571 51.8904 38.041 51.8086 39.1982L50.9923 50.7423C50.9336 51.5722 50.3672 52.2791 49.5701 52.5174L40.5626 55.2104C40.1953 55.3202 39.8041 55.3221 39.4357 55.2159L30.0441 52.5084C29.2378 52.276 28.6624 51.5649 28.6031 50.7279L28.2982 46.4214M40.3594 11L60.8687 11C62.0232 11 62.938 11.9748 62.8647 13.127L59.8529 60.4558C59.8003 61.2824 59.2437 61.991 58.4531 62.2379L40.5961 67.8139C40.208 67.9351 39.792 67.9351 39.4039 67.8139L21.5469 62.2379C20.7563 61.991 20.1997 61.2824 20.1471 60.4558L17.1353 13.127C17.062 11.9748 17.9768 11 19.1313 11L40.3594 11Z" stroke="white" stroke-width="6" stroke-linecap="round" stroke-linejoin="round"/>
<defs>
<linearGradient id="paint0_linear_0_25" x1="17.4757" y1="20.1942" x2="86.6266" y2="65.017" gradientUnits="userSpaceOnUse">
<stop stop-color="#E44D26"/>
<stop offset="0.951042" stop-color="#F16529"/>
</linearGradient>
</defs>
</svg>
