<svg width="174" height="46" viewBox="0 0 174 46" fill="none" xmlns="http://www.w3.org/2000/svg">
<rect y="0.137695" width="174" height="45.8623" rx="3" fill="url(#paint0_linear_17_6)"/>
<path d="M15.1842 35.36C13.1682 35.36 11.5962 34.838 10.4682 33.794C9.35216 32.738 8.79416 31.364 8.79416 29.672C8.79416 27.812 9.43616 26.36 10.7202 25.316C12.0162 24.272 14.1042 23.654 16.9842 23.462L21.1242 23.12L21.7362 26.288L17.5602 26.63C16.4562 26.714 15.6582 26.966 15.1662 27.386C14.6862 27.806 14.4462 28.382 14.4462 29.114C14.4462 29.834 14.6682 30.392 15.1122 30.788C15.5562 31.172 16.2042 31.364 17.0562 31.364C17.5842 31.364 18.1242 31.274 18.6762 31.094C19.2282 30.902 19.7322 30.578 20.1882 30.122V22.922C20.1882 22.022 20.0382 21.314 19.7382 20.798C19.4502 20.282 18.9762 19.916 18.3162 19.7C17.6682 19.472 16.7982 19.358 15.7062 19.358C14.9502 19.358 14.0922 19.424 13.1322 19.556C12.1722 19.676 11.2542 19.874 10.3782 20.15V15.83C11.3382 15.554 12.3882 15.35 13.5282 15.218C14.6802 15.074 15.7482 15.002 16.7322 15.002C18.8202 15.002 20.5302 15.26 21.8622 15.776C23.2062 16.292 24.1962 17.156 24.8322 18.368C25.4682 19.568 25.7862 21.206 25.7862 23.282V35H21.0702L20.6742 33.038H20.4042C19.8162 33.842 19.0662 34.43 18.1542 34.802C17.2422 35.174 16.2522 35.36 15.1842 35.36ZM41.9895 35.36C40.7295 35.36 39.4335 35.27 38.1015 35.09C36.7815 34.91 35.5515 34.634 34.4115 34.262V5.912H40.1355V17.234H40.4235C40.9995 16.526 41.7135 15.98 42.5655 15.596C43.4175 15.2 44.4015 15.002 45.5175 15.002C46.8855 15.002 48.1515 15.338 49.3155 16.01C50.4795 16.682 51.4095 17.738 52.1055 19.178C52.8015 20.618 53.1495 22.478 53.1495 24.758C53.1495 28.226 52.2255 30.86 50.3775 32.66C48.5415 34.46 45.7455 35.36 41.9895 35.36ZM42.4935 31.022C44.1135 31.022 45.3315 30.578 46.1475 29.69C46.9755 28.79 47.3895 27.296 47.3895 25.208C47.3895 23.78 47.2155 22.67 46.8675 21.878C46.5315 21.074 46.0575 20.51 45.4455 20.186C44.8455 19.862 44.1435 19.7 43.3395 19.7C42.7635 19.7 42.1935 19.796 41.6295 19.988C41.0655 20.168 40.5675 20.462 40.1355 20.87V30.734C40.4595 30.818 40.8195 30.89 41.2155 30.95C41.6235 30.998 42.0495 31.022 42.4935 31.022Z" fill="white"/>
<path d="M70.384 35.378C68.188 35.378 66.328 35.006 64.804 34.262C63.292 33.518 62.14 32.396 61.348 30.896C60.556 29.384 60.16 27.482 60.16 25.19C60.16 22.874 60.58 20.966 61.42 19.466C62.272 17.954 63.502 16.832 65.11 16.1C66.73 15.368 68.686 15.002 70.978 15.002C71.77 15.002 72.532 15.038 73.264 15.11C74.008 15.182 74.71 15.296 75.37 15.452V19.988C74.746 19.868 74.14 19.778 73.552 19.718C72.964 19.658 72.37 19.628 71.77 19.628C70.45 19.628 69.37 19.814 68.53 20.186C67.69 20.558 67.072 21.152 66.676 21.968C66.28 22.772 66.082 23.828 66.082 25.136C66.082 26.492 66.274 27.584 66.658 28.412C67.054 29.228 67.636 29.822 68.404 30.194C69.172 30.566 70.132 30.752 71.284 30.752C71.908 30.752 72.538 30.698 73.174 30.59C73.81 30.482 74.542 30.314 75.37 30.086V34.622C74.65 34.862 73.864 35.048 73.012 35.18C72.16 35.312 71.284 35.378 70.384 35.378ZM82.8568 35V15.308H87.5548L87.9868 17.846H88.2748C88.8268 16.874 89.5588 16.166 90.4708 15.722C91.3828 15.266 92.3848 15.038 93.4768 15.038C93.7768 15.038 94.0648 15.05 94.3408 15.074C94.6168 15.098 94.8628 15.134 95.0788 15.182V20.366C94.7788 20.306 94.4548 20.27 94.1068 20.258C93.7708 20.234 93.4468 20.222 93.1348 20.222C92.5708 20.222 92.0008 20.294 91.4248 20.438C90.8488 20.57 90.3148 20.78 89.8228 21.068C89.3308 21.344 88.9168 21.686 88.5808 22.094V35H82.8568ZM106.265 42.92L109.091 35L111.071 30.464L115.967 15.308H121.619L111.899 42.92H106.265ZM107.507 35L100.595 15.308H106.589L112.835 35H107.507ZM128.244 42.92V15.308H133.068L133.41 17.414H133.68C134.244 16.682 134.964 16.1 135.84 15.668C136.728 15.224 137.754 15.002 138.918 15.002C140.37 15.002 141.708 15.332 142.932 15.992C144.156 16.652 145.134 17.702 145.866 19.142C146.61 20.57 146.982 22.448 146.982 24.776C146.982 27.068 146.574 29 145.758 30.572C144.954 32.144 143.754 33.338 142.158 34.154C140.574 34.958 138.606 35.36 136.254 35.36C135.858 35.36 135.462 35.342 135.066 35.306C134.682 35.282 134.316 35.252 133.968 35.216V42.92H128.244ZM136.254 31.004C137.91 31.004 139.152 30.56 139.98 29.672C140.808 28.784 141.222 27.302 141.222 25.226C141.222 23.786 141.054 22.664 140.718 21.86C140.382 21.056 139.914 20.492 139.314 20.168C138.714 19.844 138.018 19.682 137.226 19.682C136.638 19.682 136.05 19.79 135.462 20.006C134.886 20.21 134.388 20.546 133.968 21.014V30.77C134.292 30.83 134.658 30.884 135.066 30.932C135.474 30.98 135.87 31.004 136.254 31.004ZM163.06 35.36C160.684 35.36 158.854 34.772 157.57 33.596C156.298 32.408 155.662 30.53 155.662 27.962V15.308L156.706 8.36H161.386V27.062C161.386 28.418 161.638 29.354 162.142 29.87C162.658 30.386 163.486 30.644 164.626 30.644C164.938 30.644 165.256 30.626 165.58 30.59C165.916 30.542 166.288 30.482 166.696 30.41V34.946C166.18 35.054 165.598 35.15 164.95 35.234C164.314 35.318 163.684 35.36 163.06 35.36ZM152.458 19.826V15.308H166.57V19.826H152.458Z" fill="black"/>
<defs>
<linearGradient id="paint0_linear_17_6" x1="42.9041" y1="17.3361" x2="110.072" y2="95.9956" gradientUnits="userSpaceOnUse">
<stop stop-color="#5200FF" stop-opacity="0.9"/>
<stop offset="0.951042" stop-color="#FF00D2" stop-opacity="0.5"/>
</linearGradient>
</defs>
</svg>
