<svg width="89" height="89" viewBox="0 0 89 89" fill="none" xmlns="http://www.w3.org/2000/svg">
<rect width="89" height="89" rx="20" fill="url(#paint0_linear_4_138)"/>
<rect x="16" y="33" width="56" height="47" rx="5" fill="#18192C"/>
<path d="M29.18 63.2C28.06 63.2 27.1867 62.91 26.56 62.33C25.94 61.7433 25.63 60.98 25.63 60.04C25.63 59.0067 25.9867 58.2 26.7 57.62C27.42 57.04 28.58 56.6967 30.18 56.59L32.48 56.4L32.82 58.16L30.5 58.35C29.8867 58.3967 29.4433 58.5367 29.17 58.77C28.9033 59.0033 28.77 59.3233 28.77 59.73C28.77 60.13 28.8933 60.44 29.14 60.66C29.3867 60.8733 29.7467 60.98 30.22 60.98C30.5133 60.98 30.8133 60.93 31.12 60.83C31.4267 60.7233 31.7067 60.5433 31.96 60.29V56.29C31.96 55.79 31.8767 55.3967 31.71 55.11C31.55 54.8233 31.2867 54.62 30.92 54.5C30.56 54.3733 30.0767 54.31 29.47 54.31C29.05 54.31 28.5733 54.3467 28.04 54.42C27.5067 54.4867 26.9967 54.5967 26.51 54.75V52.35C27.0433 52.1967 27.6267 52.0833 28.26 52.01C28.9 51.93 29.4933 51.89 30.04 51.89C31.2 51.89 32.15 52.0333 32.89 52.32C33.6367 52.6067 34.1867 53.0867 34.54 53.76C34.8933 54.4267 35.07 55.3367 35.07 56.49V63H32.45L32.23 61.91H32.08C31.7533 62.3567 31.3367 62.6833 30.83 62.89C30.3233 63.0967 29.7733 63.2 29.18 63.2ZM44.0719 63.2C43.3719 63.2 42.6519 63.15 41.9119 63.05C41.1785 62.95 40.4952 62.7967 39.8619 62.59V46.84H43.0419V53.13H43.2019C43.5219 52.7367 43.9185 52.4333 44.3919 52.22C44.8652 52 45.4119 51.89 46.0319 51.89C46.7919 51.89 47.4952 52.0767 48.1419 52.45C48.7885 52.8233 49.3052 53.41 49.6919 54.21C50.0785 55.01 50.2719 56.0433 50.2719 57.31C50.2719 59.2367 49.7585 60.7 48.7319 61.7C47.7119 62.7 46.1585 63.2 44.0719 63.2ZM44.3519 60.79C45.2519 60.79 45.9285 60.5433 46.3819 60.05C46.8419 59.55 47.0719 58.72 47.0719 57.56C47.0719 56.7667 46.9752 56.15 46.7819 55.71C46.5952 55.2633 46.3319 54.95 45.9919 54.77C45.6585 54.59 45.2685 54.5 44.8219 54.5C44.5019 54.5 44.1852 54.5533 43.8719 54.66C43.5585 54.76 43.2819 54.9233 43.0419 55.15V60.63C43.2219 60.6767 43.4219 60.7167 43.6419 60.75C43.8685 60.7767 44.1052 60.79 44.3519 60.79Z" fill="white"/>
<path d="M59.8466 63.21C58.6266 63.21 57.5932 63.0033 56.7466 62.59C55.9066 62.1767 55.2666 61.5533 54.8266 60.72C54.3866 59.88 54.1666 58.8233 54.1666 57.55C54.1666 56.2633 54.3999 55.2033 54.8666 54.37C55.3399 53.53 56.0232 52.9067 56.9166 52.5C57.8166 52.0933 58.9032 51.89 60.1766 51.89C60.6166 51.89 61.0399 51.91 61.4466 51.95C61.8599 51.99 62.2499 52.0533 62.6166 52.14V54.66C62.2699 54.5933 61.9332 54.5433 61.6066 54.51C61.2799 54.4767 60.9499 54.46 60.6166 54.46C59.8832 54.46 59.2832 54.5633 58.8166 54.77C58.3499 54.9767 58.0066 55.3067 57.7866 55.76C57.5666 56.2067 57.4566 56.7933 57.4566 57.52C57.4566 58.2733 57.5632 58.88 57.7766 59.34C57.9966 59.7933 58.3199 60.1233 58.7466 60.33C59.1732 60.5367 59.7066 60.64 60.3466 60.64C60.6932 60.64 61.0432 60.61 61.3966 60.55C61.7499 60.49 62.1566 60.3967 62.6166 60.27V62.79C62.2166 62.9233 61.7799 63.0267 61.3066 63.1C60.8332 63.1733 60.3466 63.21 59.8466 63.21Z" fill="url(#paint1_linear_4_138)"/>
<rect x="22" y="9" width="44" height="35" rx="10" stroke="#18192C" stroke-width="5"/>
<defs>
<linearGradient id="paint0_linear_4_138" x1="21.9452" y1="33.375" x2="96.3313" y2="56.3359" gradientUnits="userSpaceOnUse">
<stop stop-color="#5200FF" stop-opacity="0.9"/>
<stop offset="0.951042" stop-color="#FF00D2" stop-opacity="0.5"/>
</linearGradient>
<linearGradient id="paint1_linear_4_138" x1="48.5" y1="48.5" x2="67.0521" y2="70.4164" gradientUnits="userSpaceOnUse">
<stop offset="0.107292" stop-color="#CC00FF"/>
<stop offset="1" stop-color="#5200FF" stop-opacity="0.9"/>
</linearGradient>
</defs>
</svg>
