<svg width="227" height="58" viewBox="0 0 227 58" fill="none" xmlns="http://www.w3.org/2000/svg">
<rect width="58" height="58" rx="20" fill="url(#paint0_linear_15_61)"/>
<rect x="10.427" y="21.5056" width="36.4944" height="30.6292" rx="5" fill="#18192C"/>
<path d="M18.926 41.14C18.142 41.14 17.5307 40.937 17.092 40.531C16.658 40.1203 16.441 39.586 16.441 38.928C16.441 38.2047 16.6907 37.64 17.19 37.234C17.694 36.828 18.506 36.5877 19.626 36.513L21.236 36.38L21.474 37.612L19.85 37.745C19.4207 37.7777 19.1103 37.8757 18.919 38.039C18.7323 38.2023 18.639 38.4263 18.639 38.711C18.639 38.991 18.7253 39.208 18.898 39.362C19.0707 39.5113 19.3227 39.586 19.654 39.586C19.8593 39.586 20.0693 39.551 20.284 39.481C20.4987 39.4063 20.6947 39.2803 20.872 39.103V36.303C20.872 35.953 20.8137 35.6777 20.697 35.477C20.585 35.2763 20.4007 35.134 20.144 35.05C19.892 34.9613 19.5537 34.917 19.129 34.917C18.835 34.917 18.5013 34.9427 18.128 34.994C17.7547 35.0407 17.3977 35.1177 17.057 35.225V33.545C17.4303 33.4377 17.8387 33.3583 18.282 33.307C18.73 33.251 19.1453 33.223 19.528 33.223C20.34 33.223 21.005 33.3233 21.523 33.524C22.0457 33.7247 22.4307 34.0607 22.678 34.532C22.9253 34.9987 23.049 35.6357 23.049 36.443V41H21.215L21.061 40.237H20.956C20.7273 40.5497 20.4357 40.7783 20.081 40.923C19.7263 41.0677 19.3413 41.14 18.926 41.14ZM29.3503 41.14C28.8603 41.14 28.3563 41.105 27.8383 41.035C27.325 40.965 26.8466 40.8577 26.4033 40.713V29.688H28.6293V34.091H28.7413C28.9653 33.8157 29.243 33.6033 29.5743 33.454C29.9056 33.3 30.2883 33.223 30.7223 33.223C31.2543 33.223 31.7466 33.3537 32.1993 33.615C32.652 33.8763 33.0136 34.287 33.2843 34.847C33.555 35.407 33.6903 36.1303 33.6903 37.017C33.6903 38.3657 33.331 39.39 32.6123 40.09C31.8983 40.79 30.811 41.14 29.3503 41.14ZM29.5463 39.453C30.1763 39.453 30.65 39.2803 30.9673 38.935C31.2893 38.585 31.4503 38.004 31.4503 37.192C31.4503 36.6367 31.3826 36.205 31.2473 35.897C31.1166 35.5843 30.9323 35.365 30.6943 35.239C30.461 35.113 30.188 35.05 29.8753 35.05C29.6513 35.05 29.4296 35.0873 29.2103 35.162C28.991 35.232 28.7973 35.3463 28.6293 35.505V39.341C28.7553 39.3737 28.8953 39.4017 29.0493 39.425C29.208 39.4437 29.3736 39.453 29.5463 39.453Z" fill="white"/>
<path d="M40.3926 41.147C39.5386 41.147 38.8153 41.0023 38.2226 40.713C37.6346 40.4237 37.1866 39.9873 36.8786 39.404C36.5706 38.816 36.4166 38.0763 36.4166 37.185C36.4166 36.2843 36.5799 35.5423 36.9066 34.959C37.2379 34.371 37.7163 33.9347 38.3416 33.65C38.9716 33.3653 39.7323 33.223 40.6236 33.223C40.9316 33.223 41.2279 33.237 41.5126 33.265C41.8019 33.293 42.0749 33.3373 42.3316 33.398V35.162C42.0889 35.1153 41.8533 35.0803 41.6246 35.057C41.3959 35.0337 41.1649 35.022 40.9316 35.022C40.4183 35.022 39.9983 35.0943 39.6716 35.239C39.3449 35.3837 39.1046 35.6147 38.9506 35.932C38.7966 36.2447 38.7196 36.6553 38.7196 37.164C38.7196 37.6913 38.7943 38.116 38.9436 38.438C39.0976 38.7553 39.3239 38.9863 39.6226 39.131C39.9213 39.2757 40.2946 39.348 40.7426 39.348C40.9853 39.348 41.2303 39.327 41.4776 39.285C41.7249 39.243 42.0096 39.1777 42.3316 39.089V40.853C42.0516 40.9463 41.7459 41.0187 41.4146 41.07C41.0833 41.1213 40.7426 41.147 40.3926 41.147Z" fill="url(#paint1_linear_15_61)"/>
<rect x="14.3369" y="5.86523" width="28.6742" height="22.809" rx="9" stroke="#18192C" stroke-width="5"/>
<path d="M76.688 42.32C74.896 42.32 73.4987 41.856 72.496 40.928C71.504 39.9893 71.008 38.768 71.008 37.264C71.008 35.6107 71.5787 34.32 72.72 33.392C73.872 32.464 75.728 31.9147 78.288 31.744L81.968 31.44L82.512 34.256L78.8 34.56C77.8187 34.6347 77.1093 34.8587 76.672 35.232C76.2453 35.6053 76.032 36.1173 76.032 36.768C76.032 37.408 76.2293 37.904 76.624 38.256C77.0187 38.5973 77.5947 38.768 78.352 38.768C78.8213 38.768 79.3013 38.688 79.792 38.528C80.2827 38.3573 80.7307 38.0693 81.136 37.664V31.264C81.136 30.464 81.0027 29.8347 80.736 29.376C80.48 28.9173 80.0587 28.592 79.472 28.4C78.896 28.1973 78.1227 28.096 77.152 28.096C76.48 28.096 75.7173 28.1547 74.864 28.272C74.0107 28.3787 73.1947 28.5547 72.416 28.8V24.96C73.2693 24.7147 74.2027 24.5333 75.216 24.416C76.24 24.288 77.1893 24.224 78.064 24.224C79.92 24.224 81.44 24.4533 82.624 24.912C83.8187 25.3707 84.6987 26.1387 85.264 27.216C85.8293 28.2827 86.112 29.7387 86.112 31.584V42H81.92L81.568 40.256H81.328C80.8053 40.9707 80.1387 41.4933 79.328 41.824C78.5173 42.1547 77.6373 42.32 76.688 42.32ZM100.515 42.32C99.395 42.32 98.243 42.24 97.059 42.08C95.8857 41.92 94.7923 41.6747 93.779 41.344V16.144H98.867V26.208H99.123C99.635 25.5787 100.27 25.0933 101.027 24.752C101.784 24.4 102.659 24.224 103.651 24.224C104.867 24.224 105.992 24.5227 107.027 25.12C108.062 25.7173 108.888 26.656 109.507 27.936C110.126 29.216 110.435 30.8693 110.435 32.896C110.435 35.9787 109.614 38.32 107.971 39.92C106.339 41.52 103.854 42.32 100.515 42.32ZM100.963 38.464C102.403 38.464 103.486 38.0693 104.211 37.28C104.947 36.48 105.315 35.152 105.315 33.296C105.315 32.0267 105.16 31.04 104.851 30.336C104.552 29.6213 104.131 29.12 103.587 28.832C103.054 28.544 102.43 28.4 101.715 28.4C101.203 28.4 100.696 28.4853 100.195 28.656C99.6937 28.816 99.251 29.0773 98.867 29.44V38.208C99.155 38.2827 99.475 38.3467 99.827 38.4C100.19 38.4427 100.568 38.464 100.963 38.464Z" fill="white"/>
<path d="M125.755 42.336C123.803 42.336 122.149 42.0053 120.795 41.344C119.451 40.6827 118.427 39.6853 117.723 38.352C117.019 37.008 116.667 35.3173 116.667 33.28C116.667 31.2213 117.04 29.5253 117.787 28.192C118.544 26.848 119.637 25.8507 121.067 25.2C122.507 24.5493 124.245 24.224 126.283 24.224C126.987 24.224 127.664 24.256 128.315 24.32C128.976 24.384 129.6 24.4853 130.187 24.624V28.656C129.632 28.5493 129.093 28.4693 128.571 28.416C128.048 28.3627 127.52 28.336 126.987 28.336C125.813 28.336 124.853 28.5013 124.107 28.832C123.36 29.1627 122.811 29.6907 122.459 30.416C122.107 31.1307 121.931 32.0693 121.931 33.232C121.931 34.4373 122.101 35.408 122.443 36.144C122.795 36.8693 123.312 37.3973 123.995 37.728C124.677 38.0587 125.531 38.224 126.555 38.224C127.109 38.224 127.669 38.176 128.235 38.08C128.8 37.984 129.451 37.8347 130.187 37.632V41.664C129.547 41.8773 128.848 42.0427 128.091 42.16C127.333 42.2773 126.555 42.336 125.755 42.336ZM136.842 42V24.496H141.018L141.402 26.752H141.658C142.148 25.888 142.799 25.2587 143.61 24.864C144.42 24.4587 145.311 24.256 146.282 24.256C146.548 24.256 146.804 24.2667 147.05 24.288C147.295 24.3093 147.514 24.3413 147.706 24.384V28.992C147.439 28.9387 147.151 28.9067 146.842 28.896C146.543 28.8747 146.255 28.864 145.978 28.864C145.476 28.864 144.97 28.928 144.458 29.056C143.946 29.1733 143.471 29.36 143.034 29.616C142.596 29.8613 142.228 30.1653 141.93 30.528V42H136.842ZM157.649 49.04L160.161 42L161.921 37.968L166.273 24.496H171.297L162.657 49.04H157.649ZM158.753 42L152.609 24.496H157.937L163.489 42H158.753ZM177.185 49.04V24.496H181.473L181.777 26.368H182.017C182.519 25.7173 183.159 25.2 183.937 24.816C184.727 24.4213 185.639 24.224 186.673 24.224C187.964 24.224 189.153 24.5173 190.241 25.104C191.329 25.6907 192.199 26.624 192.849 27.904C193.511 29.1733 193.841 30.8427 193.841 32.912C193.841 34.9493 193.479 36.6667 192.753 38.064C192.039 39.4613 190.972 40.5227 189.553 41.248C188.145 41.9627 186.396 42.32 184.305 42.32C183.953 42.32 183.601 42.304 183.249 42.272C182.908 42.2507 182.583 42.224 182.273 42.192V49.04H177.185ZM184.305 38.448C185.777 38.448 186.881 38.0533 187.617 37.264C188.353 36.4747 188.721 35.1573 188.721 33.312C188.721 32.032 188.572 31.0347 188.273 30.32C187.975 29.6053 187.559 29.104 187.025 28.816C186.492 28.528 185.873 28.384 185.169 28.384C184.647 28.384 184.124 28.48 183.601 28.672C183.089 28.8533 182.647 29.152 182.273 29.568V38.24C182.561 38.2933 182.887 38.3413 183.249 38.384C183.612 38.4267 183.964 38.448 184.305 38.448ZM208.134 42.32C206.022 42.32 204.395 41.7973 203.254 40.752C202.123 39.696 201.558 38.0267 201.558 35.744V24.496L202.486 18.32H206.646V34.944C206.646 36.1493 206.87 36.9813 207.318 37.44C207.776 37.8987 208.512 38.128 209.526 38.128C209.803 38.128 210.086 38.112 210.374 38.08C210.672 38.0373 211.003 37.984 211.366 37.92V41.952C210.907 42.048 210.39 42.1333 209.814 42.208C209.248 42.2827 208.688 42.32 208.134 42.32ZM198.71 28.512V24.496H211.254V28.512H198.71Z" fill="url(#paint2_linear_15_61)"/>
<defs>
<linearGradient id="paint0_linear_15_61" x1="14.3014" y1="21.75" x2="62.7777" y2="36.7133" gradientUnits="userSpaceOnUse">
<stop stop-color="#5200FF" stop-opacity="0.9"/>
<stop offset="0.951042" stop-color="#FF00D2" stop-opacity="0.5"/>
</linearGradient>
<linearGradient id="paint1_linear_15_61" x1="32.2692" y1="30.4459" x2="44.7506" y2="45.5537" gradientUnits="userSpaceOnUse">
<stop offset="0.107292" stop-color="#CC00FF"/>
<stop offset="1" stop-color="#5200FF" stop-opacity="0.9"/>
</linearGradient>
<linearGradient id="paint2_linear_15_61" x1="106" y1="21.75" x2="189.339" y2="86.5044" gradientUnits="userSpaceOnUse">
<stop stop-color="#5200FF" stop-opacity="0.9"/>
<stop offset="0.951042" stop-color="#FF00D2" stop-opacity="0.5"/>
</linearGradient>
</defs>
</svg>
