<svg width="234" height="66" viewBox="0 0 234 66" fill="none" xmlns="http://www.w3.org/2000/svg">
<rect width="66" height="66" rx="30" fill="url(#paint0_linear_15_61)"/>
<rect x="19" y="9" width="29" height="24" rx="9" stroke="#18192C" stroke-width="5"/>
<rect x="15" y="26" width="37" height="30" rx="5" fill="#18192C"/>
<path d="M22.3528 46.15C21.5128 46.15 20.8578 45.9325 20.3878 45.4975C19.9228 45.0575 19.6903 44.485 19.6903 43.78C19.6903 43.005 19.9578 42.4 20.4928 41.965C21.0328 41.53 21.9028 41.2725 23.1028 41.1925L24.8278 41.05L25.0828 42.37L23.3428 42.5125C22.8828 42.5475 22.5503 42.6525 22.3453 42.8275C22.1453 43.0025 22.0453 43.2425 22.0453 43.5475C22.0453 43.8475 22.1378 44.08 22.3228 44.245C22.5078 44.405 22.7778 44.485 23.1328 44.485C23.3528 44.485 23.5778 44.4475 23.8078 44.3725C24.0378 44.2925 24.2478 44.1575 24.4378 43.9675V40.9675C24.4378 40.5925 24.3753 40.2975 24.2503 40.0825C24.1303 39.8675 23.9328 39.715 23.6578 39.625C23.3878 39.53 23.0253 39.4825 22.5703 39.4825C22.2553 39.4825 21.8978 39.51 21.4978 39.565C21.0978 39.615 20.7153 39.6975 20.3503 39.8125V38.0125C20.7503 37.8975 21.1878 37.8125 21.6628 37.7575C22.1428 37.6975 22.5878 37.6675 22.9978 37.6675C23.8678 37.6675 24.5803 37.775 25.1353 37.99C25.6953 38.205 26.1078 38.565 26.3728 39.07C26.6378 39.57 26.7703 40.2525 26.7703 41.1175V46H24.8053L24.6403 45.1825H24.5278C24.2828 45.5175 23.9703 45.7625 23.5903 45.9175C23.2103 46.0725 22.7978 46.15 22.3528 46.15ZM33.5217 46.15C32.9967 46.15 32.4567 46.1125 31.9017 46.0375C31.3517 45.9625 30.8392 45.8475 30.3642 45.6925V33.88H32.7492V38.5975H32.8692C33.1092 38.3025 33.4067 38.075 33.7617 37.915C34.1167 37.75 34.5267 37.6675 34.9917 37.6675C35.5617 37.6675 36.0892 37.8075 36.5742 38.0875C37.0592 38.3675 37.4467 38.8075 37.7367 39.4075C38.0267 40.0075 38.1717 40.7825 38.1717 41.7325C38.1717 43.1775 37.7867 44.275 37.0167 45.025C36.2517 45.775 35.0867 46.15 33.5217 46.15ZM33.7317 44.3425C34.4067 44.3425 34.9142 44.1575 35.2542 43.7875C35.5992 43.4125 35.7717 42.79 35.7717 41.92C35.7717 41.325 35.6992 40.8625 35.5542 40.5325C35.4142 40.1975 35.2167 39.9625 34.9617 39.8275C34.7117 39.6925 34.4192 39.625 34.0842 39.625C33.8442 39.625 33.6067 39.665 33.3717 39.745C33.1367 39.82 32.9292 39.9425 32.7492 40.1125V44.2225C32.8842 44.2575 33.0342 44.2875 33.1992 44.3125C33.3692 44.3325 33.5467 44.3425 33.7317 44.3425Z" fill="white"/>
<path d="M45.3527 46.1575C44.4377 46.1575 43.6627 46.0025 43.0277 45.6925C42.3977 45.3825 41.9177 44.915 41.5877 44.29C41.2577 43.66 41.0927 42.8675 41.0927 41.9125C41.0927 40.9475 41.2677 40.1525 41.6177 39.5275C41.9727 38.8975 42.4852 38.43 43.1552 38.125C43.8302 37.82 44.6452 37.6675 45.6002 37.6675C45.9302 37.6675 46.2477 37.6825 46.5527 37.7125C46.8627 37.7425 47.1552 37.79 47.4302 37.855V39.745C47.1702 39.695 46.9177 39.6575 46.6727 39.6325C46.4277 39.6075 46.1802 39.595 45.9302 39.595C45.3802 39.595 44.9302 39.6725 44.5802 39.8275C44.2302 39.9825 43.9727 40.23 43.8077 40.57C43.6427 40.905 43.5602 41.345 43.5602 41.89C43.5602 42.455 43.6402 42.91 43.8002 43.255C43.9652 43.595 44.2077 43.8425 44.5277 43.9975C44.8477 44.1525 45.2477 44.23 45.7277 44.23C45.9877 44.23 46.2502 44.2075 46.5152 44.1625C46.7802 44.1175 47.0852 44.0475 47.4302 43.9525V45.8425C47.1302 45.9425 46.8027 46.02 46.4477 46.075C46.0927 46.13 45.7277 46.1575 45.3527 46.1575Z" fill="url(#paint1_linear_15_61)"/>
<path d="M82.106 47.34C80.202 47.34 78.7173 46.847 77.652 45.861C76.598 44.8637 76.071 43.566 76.071 41.968C76.071 40.2113 76.6773 38.84 77.89 37.854C79.114 36.868 81.086 36.2843 83.806 36.103L87.716 35.78L88.294 38.772L84.35 39.095C83.3073 39.1743 82.5537 39.4123 82.089 39.809C81.6357 40.2057 81.409 40.7497 81.409 41.441C81.409 42.121 81.6187 42.648 82.038 43.022C82.4573 43.3847 83.0693 43.566 83.874 43.566C84.3727 43.566 84.8827 43.481 85.404 43.311C85.9253 43.1297 86.4013 42.8237 86.832 42.393V35.593C86.832 34.743 86.6903 34.0743 86.407 33.587C86.135 33.0997 85.6873 32.754 85.064 32.55C84.452 32.3347 83.6303 32.227 82.599 32.227C81.885 32.227 81.0747 32.2893 80.168 32.414C79.2613 32.5273 78.3943 32.7143 77.567 32.975V28.895C78.4737 28.6343 79.4653 28.4417 80.542 28.317C81.63 28.181 82.6387 28.113 83.568 28.113C85.54 28.113 87.155 28.3567 88.413 28.844C89.6823 29.3313 90.6173 30.1473 91.218 31.292C91.8187 32.4253 92.119 33.9723 92.119 35.933V47H87.665L87.291 45.147H87.036C86.4807 45.9063 85.7723 46.4617 84.911 46.813C84.0497 47.1643 83.1147 47.34 82.106 47.34ZM107.422 47.34C106.232 47.34 105.008 47.255 103.75 47.085C102.504 46.915 101.342 46.6543 100.265 46.303V19.528H105.671V30.221H105.943C106.487 29.5523 107.162 29.0367 107.966 28.674C108.771 28.3 109.7 28.113 110.754 28.113C112.046 28.113 113.242 28.4303 114.341 29.065C115.441 29.6997 116.319 30.697 116.976 32.057C117.634 33.417 117.962 35.1737 117.962 37.327C117.962 40.6023 117.09 43.09 115.344 44.79C113.61 46.49 110.97 47.34 107.422 47.34ZM107.898 43.243C109.428 43.243 110.579 42.8237 111.349 41.985C112.131 41.135 112.522 39.724 112.522 37.752C112.522 36.4033 112.358 35.355 112.029 34.607C111.712 33.8477 111.264 33.315 110.686 33.009C110.12 32.703 109.457 32.55 108.697 32.55C108.153 32.55 107.615 32.6407 107.082 32.822C106.55 32.992 106.079 33.2697 105.671 33.655V42.971C105.977 43.0503 106.317 43.1183 106.691 43.175C107.077 43.2203 107.479 43.243 107.898 43.243Z" fill="white"/>
<path d="M134.239 47.357C132.165 47.357 130.408 47.0057 128.969 46.303C127.541 45.6003 126.453 44.5407 125.705 43.124C124.957 41.696 124.583 39.8997 124.583 37.735C124.583 35.5477 124.98 33.7457 125.773 32.329C126.578 30.901 127.739 29.8413 129.258 29.15C130.788 28.4587 132.635 28.113 134.8 28.113C135.548 28.113 136.268 28.147 136.959 28.215C137.662 28.283 138.325 28.3907 138.948 28.538V32.822C138.359 32.7087 137.786 32.6237 137.231 32.567C136.676 32.5103 136.115 32.482 135.548 32.482C134.301 32.482 133.281 32.6577 132.488 33.009C131.695 33.3603 131.111 33.9213 130.737 34.692C130.363 35.4513 130.176 36.4487 130.176 37.684C130.176 38.9647 130.357 39.996 130.72 40.778C131.094 41.5487 131.644 42.1097 132.369 42.461C133.094 42.8123 134.001 42.988 135.089 42.988C135.678 42.988 136.273 42.937 136.874 42.835C137.475 42.733 138.166 42.5743 138.948 42.359V46.643C138.268 46.8697 137.526 47.0453 136.721 47.17C135.916 47.2947 135.089 47.357 134.239 47.357ZM146.019 47V28.402H150.456L150.864 30.799H151.136C151.657 29.881 152.349 29.2123 153.21 28.793C154.071 28.3623 155.018 28.147 156.049 28.147C156.332 28.147 156.604 28.1583 156.865 28.181C157.126 28.2037 157.358 28.2377 157.562 28.283V33.179C157.279 33.1223 156.973 33.0883 156.644 33.077C156.327 33.0543 156.021 33.043 155.726 33.043C155.193 33.043 154.655 33.111 154.111 33.247C153.567 33.3717 153.063 33.57 152.598 33.842C152.133 34.1027 151.742 34.4257 151.425 34.811V47H146.019ZM168.127 54.48L170.796 47L172.666 42.716L177.29 28.402H182.628L173.448 54.48H168.127ZM169.3 47L162.772 28.402H168.433L174.332 47H169.3ZM188.884 54.48V28.402H193.44L193.763 30.391H194.018C194.551 29.6997 195.231 29.15 196.058 28.742C196.897 28.3227 197.866 28.113 198.965 28.113C200.337 28.113 201.6 28.4247 202.756 29.048C203.912 29.6713 204.836 30.663 205.527 32.023C206.23 33.3717 206.581 35.1453 206.581 37.344C206.581 39.5087 206.196 41.3333 205.425 42.818C204.666 44.3027 203.533 45.4303 202.025 46.201C200.529 46.9603 198.671 47.34 196.449 47.34C196.075 47.34 195.701 47.323 195.327 47.289C194.965 47.2663 194.619 47.238 194.29 47.204V54.48H188.884ZM196.449 43.226C198.013 43.226 199.186 42.8067 199.968 41.968C200.75 41.1293 201.141 39.7297 201.141 37.769C201.141 36.409 200.983 35.3493 200.665 34.59C200.348 33.8307 199.906 33.298 199.339 32.992C198.773 32.686 198.115 32.533 197.367 32.533C196.812 32.533 196.257 32.635 195.701 32.839C195.157 33.0317 194.687 33.349 194.29 33.791V43.005C194.596 43.0617 194.942 43.1127 195.327 43.158C195.713 43.2033 196.087 43.226 196.449 43.226ZM221.767 47.34C219.523 47.34 217.795 46.7847 216.582 45.674C215.381 44.552 214.78 42.7783 214.78 40.353V28.402L215.766 21.84H220.186V39.503C220.186 40.7837 220.424 41.6677 220.9 42.155C221.387 42.6423 222.169 42.886 223.246 42.886C223.541 42.886 223.841 42.869 224.147 42.835C224.464 42.7897 224.816 42.733 225.201 42.665V46.949C224.714 47.051 224.164 47.1417 223.552 47.221C222.951 47.3003 222.356 47.34 221.767 47.34ZM211.754 32.669V28.402H225.082V32.669H211.754Z" fill="url(#paint2_linear_15_61)"/>
<defs>
<linearGradient id="paint0_linear_15_61" x1="16.274" y1="24.75" x2="71.4367" y2="41.7772" gradientUnits="userSpaceOnUse">
<stop stop-color="#5200FF" stop-opacity="0.9"/>
<stop offset="1" stop-color="#FF00D2"/>
</linearGradient>
<linearGradient id="paint1_linear_15_61" x1="36.8846" y1="34.4459" x2="48.6782" y2="51.8934" gradientUnits="userSpaceOnUse">
<stop offset="0.107292" stop-color="#CC00FF"/>
<stop offset="1" stop-color="#5200FF" stop-opacity="0.9"/>
</linearGradient>
<linearGradient id="paint2_linear_15_61" x1="115.438" y1="25.75" x2="200.654" y2="100.126" gradientUnits="userSpaceOnUse">
<stop stop-color="#5200FF" stop-opacity="0.9"/>
<stop offset="1" stop-color="#FF00D2"/>
</linearGradient>
</defs>
</svg>
