<svg width="80" height="80" viewBox="0 0 80 80" fill="none" xmlns="http://www.w3.org/2000/svg">
<rect width="80" height="80" rx="5" fill="url(#paint0_linear_0_19)"/>
<path d="M63 12L63 9C63.8287 9 64.6205 9.34282 65.1876 9.94714C65.7547 10.5515 66.0466 11.3635 65.9939 12.1905L63 12ZM59.7656 62.828L62.7596 63.0185C62.6807 64.2584 61.8457 65.3214 60.6598 65.6917L59.7656 62.828ZM40 69L40.8942 71.8636C40.3119 72.0455 39.6881 72.0455 39.1058 71.8636L40 69ZM40.3594 12L40.3594 15H40.3594L40.3594 12ZM17 12L14.0061 12.1905C13.9534 11.3635 14.2453 10.5515 14.8124 9.94715C15.3794 9.34282 16.1713 9.00001 17 9.00001V12ZM20.2344 62.828L19.3402 65.6917C18.1543 65.3214 17.3193 64.2584 17.2404 63.0186L20.2344 62.828ZM28.9481 27.734C27.2912 27.734 25.9481 26.3909 25.9481 24.734C25.9481 23.0772 27.2912 21.734 28.9481 21.734V27.734ZM50.7532 24.734V21.734C52.0922 21.734 53.269 22.6213 53.6374 23.9085C54.0059 25.1958 53.4767 26.5713 52.3405 27.2797L50.7532 24.734ZM29.8442 37.7713V40.7713C28.5052 40.7713 27.3284 39.884 26.96 38.5968C26.5915 37.3096 27.1207 35.934 28.2569 35.2256L29.8442 37.7713ZM50.7532 37.7713V34.7713C52.4101 34.7713 53.7532 36.1144 53.7532 37.7713H50.7532ZM50.7532 51.7181H53.7532C53.7532 52.9498 53.0004 54.0563 51.8547 54.5086L50.7532 51.7181ZM40 55.9628L41.1015 58.7532C40.4027 59.0291 39.6258 59.0327 38.9244 58.7633L40 55.9628ZM28.9481 51.7181L27.8725 54.5186C26.7132 54.0734 25.9481 52.9599 25.9481 51.7181H28.9481ZM25.9481 47.7766C25.9481 46.1198 27.2912 44.7766 28.9481 44.7766C30.6049 44.7766 31.9481 46.1198 31.9481 47.7766H25.9481ZM65.9939 12.1905L62.7596 63.0185L56.7717 62.6375L60.0061 11.8095L65.9939 12.1905ZM60.6598 65.6917L40.8942 71.8636L39.1058 66.1364L58.8714 59.9644L60.6598 65.6917ZM63 15L40.3594 15L40.3594 9.00002L63 9L63 15ZM19.9939 11.8095L23.2283 62.6375L17.2404 63.0186L14.0061 12.1905L19.9939 11.8095ZM21.1286 59.9644L40.8942 66.1364L39.1058 71.8636L19.3402 65.6917L21.1286 59.9644ZM17 9.00001L40.3594 9.00002L40.3594 15L17 15L17 9.00001ZM28.9481 21.734H50.7532V27.734H28.9481V21.734ZM52.3405 27.2797L31.4314 40.317L28.2569 35.2256L49.166 22.1884L52.3405 27.2797ZM29.8442 34.7713H50.7532V40.7713H29.8442V34.7713ZM53.7532 37.7713V51.7181H47.7532V37.7713H53.7532ZM51.8547 54.5086L41.1015 58.7532L38.8985 53.1723L49.6518 48.9276L51.8547 54.5086ZM38.9244 58.7633L27.8725 54.5186L30.0237 48.9175L41.0756 53.1622L38.9244 58.7633ZM25.9481 51.7181V47.7766H31.9481V51.7181H25.9481Z" fill="white"/>
<defs>
<linearGradient id="paint0_linear_0_19" x1="17.4757" y1="20.1942" x2="86.6266" y2="65.017" gradientUnits="userSpaceOnUse">
<stop stop-color="#264DE4"/>
<stop offset="0.951042" stop-color="#2965F1"/>
</linearGradient>
</defs>
</svg>
